# xmcd
#
# Track frame offsets:
#	150
#	17617
#	33975
#	50747
#	63797
#
# Disc length: 1052 seconds
#
# Revision: 1
# Processed by: cddbd v1.5.1PL0 Copyright (c) Steve Scherf et al.
# Submitted via: CDex 1.50Beta5
#
DISCID=37041a05
DTITLE=Various Artist - Best Sound Collection 70's-A
DYEAR=1900
DGENRE=Pop
TTITLE0=Hero(ヒーローになる時、それは今)
TTITLE1=心の旅
TTITLE2=我が良き友よ
TTITLE3=花嫁
TTITLE4=君のひとみは10000ボルト
EXTD=
EXTT0=
EXTT1=
EXTT2=
EXTT3=
EXTT4=
PLAYORDER=
